<svg xmlns="http://www.w3.org/2000/svg" xmlns:xlink="http://www.w3.org/1999/xlink" width="2180" zoomAndPan="magnify" viewBox="0 0 1634.88 1266.749941" height="1689" preserveAspectRatio="xMidYMid meet" version="1.0"><defs><filter x="0%" y="0%" width="100%" height="100%" id="fbd7a80fff"><feColorMatrix values="0 0 0 0 1 0 0 0 0 1 0 0 0 0 1 0 0 0 1 0" color-interpolation-filters="sRGB"/></filter><g/><clipPath id="b5cbe34698"><path d="M 32 0.15625 L 586.117188 0.15625 L 586.117188 913 L 32 913 Z M 32 0.15625 " clip-rule="nonzero"/></clipPath><mask id="ee8c16adae"><g filter="url(#fbd7a80fff)"><rect x="-907.6736" width="2354.2272" fill="#000000" y="-304.684987" height="1824.119914" fill-opacity="0.33"/></g></mask><clipPath id="dc171d3ece"><path d="M 1 3.285156 L 553.921875 3.285156 L 553.921875 910 L 1 910 Z M 1 3.285156 " clip-rule="nonzero"/></clipPath><clipPath id="805249a9ee"><rect x="0" width="555" y="0" height="913"/></clipPath><clipPath id="bf66e23c20"><path d="M 0.632812 171 L 458 171 L 458 814 L 0.632812 814 Z M 0.632812 171 " clip-rule="nonzero"/></clipPath><clipPath id="99a71fc851"><rect x="0" width="458" y="0" height="643"/></clipPath><clipPath id="97628a5400"><path d="M 240 394 L 569 394 L 569 1042.75 L 240 1042.75 Z M 240 394 " clip-rule="nonzero"/></clipPath><clipPath id="bc458d95e0"><rect x="0" width="329" y="0" height="649"/></clipPath><clipPath id="bdef5fe27b"><rect x="0" width="587" y="0" height="1043"/></clipPath></defs><g transform="matrix(1, 0, 0, 1, 548, 26)"><g clip-path="url(#bdef5fe27b)"><g clip-path="url(#b5cbe34698)"><g mask="url(#ee8c16adae)"><g transform="matrix(1, 0, 0, 1, 32, -0.000000000000031974)"><g clip-path="url(#805249a9ee)"><g clip-path="url(#dc171d3ece)"><path fill="#f1f1f1" d="M 71.304688 508.816406 C 70.085938 511.460938 68.929688 513.683594 68.351562 516.085938 C 67.257812 520.648438 66.101562 525.269531 65.707031 529.894531 C 64.945312 538.589844 64.21875 547.351562 64.429688 556.078125 C 64.644531 564.261719 66.042969 572.441406 67.015625 580.59375 C 67.074219 581.109375 68.050781 581.535156 68.597656 582.019531 C 68.929688 581.566406 69.539062 581.140625 69.570312 580.652344 C 71.089844 564.410156 77.203125 549.691406 84.351562 535.277344 C 85.445312 533.085938 85.78125 531.535156 84.472656 528.917969 C 81.066406 522.199219 83.285156 515.902344 87.390625 510.003906 C 92.226562 503.066406 99.164062 502.339844 106.613281 503.160156 C 110.535156 503.585938 114.917969 507.722656 114.917969 511.613281 C 114.886719 517.453125 115.738281 523.292969 113.792969 529.132812 C 110.234375 539.714844 101.65625 541.023438 93.230469 538.074219 C 86.296875 535.640625 87.027344 535.640625 84.410156 541.664062 C 79.699219 552.460938 75.378906 563.5 73.554688 575.269531 C 72.886719 579.617188 71.699219 583.875 70.9375 588.195312 C 69.84375 594.339844 72.398438 600.027344 73.738281 605.773438 C 75.925781 615.261719 78.695312 624.601562 81.675781 633.875 C 85.960938 647.226562 90.921875 660.367188 95.054688 673.777344 C 97.761719 682.507812 99.558594 691.539062 101.65625 700.480469 C 102.691406 704.984375 103.449219 709.546875 104.363281 714.078125 C 104.484375 714.625 104.847656 715.109375 105.09375 715.628906 C 105.304688 715.050781 105.519531 714.472656 105.699219 713.863281 C 107.039062 709.300781 108.53125 704.769531 109.683594 700.148438 C 112.878906 687.433594 115.464844 674.507812 119.328125 661.976562 C 120.878906 656.960938 123.613281 652.335938 123.066406 646.863281 C 122.671875 642.816406 122.214844 638.773438 121.730469 634.726562 C 121.242188 630.683594 122.976562 626.425781 120.453125 622.5625 C 120.148438 622.105469 120.148438 621.074219 120.453125 620.617188 C 123.007812 616.753906 121.425781 612.496094 121.699219 608.449219 C 122.277344 599.507812 122.429688 590.539062 123.128906 581.59375 C 123.734375 573.929688 124.800781 566.265625 125.742188 558.632812 C 127.660156 543.425781 131.097656 528.464844 135.261719 513.742188 C 137.878906 504.46875 142.074219 495.648438 145.605469 486.613281 C 149.191406 477.398438 152.8125 468.214844 156.550781 459.058594 C 157.34375 457.144531 158.652344 455.472656 159.777344 453.707031 C 162.453125 449.539062 163.789062 445.433594 161.964844 440.234375 C 159.835938 434.179688 159.257812 427.550781 156.976562 421.558594 C 153.542969 412.527344 149.222656 403.828125 145.300781 394.980469 C 144.203125 392.546875 142.957031 390.144531 142.015625 387.648438 C 138.335938 377.945312 131.460938 371.105469 123.066406 365.324219 C 113.273438 358.605469 103.449219 351.761719 95.757812 342.605469 C 91.863281 337.984375 88.730469 332.660156 85.660156 327.429688 C 82.433594 321.894531 78.722656 316.359375 76.992188 310.339844 C 74.648438 302.097656 71.546875 293.824219 72.125 284.882812 C 72.335938 281.535156 71 278.128906 70.9375 274.753906 C 70.695312 255.683594 74.464844 237.34375 81.035156 219.460938 C 85.171875 208.148438 91.46875 198.171875 98.644531 188.652344 C 102.933594 182.964844 107.34375 177.277344 112.390625 172.320312 C 121.667969 163.199219 132.496094 155.960938 143.566406 149.175781 C 145.511719 147.992188 148.339844 148.171875 150.742188 147.71875 C 150.074219 150 149.710938 152.429688 148.644531 154.53125 C 142.441406 167.03125 138.304688 180.351562 135.382812 193.761719 C 131.734375 210.460938 132.980469 227.003906 141.316406 242.851562 C 147.15625 253.953125 152.597656 265.8125 153.511719 278.464844 C 154.269531 288.835938 155.273438 299.511719 152.597656 310.003906 C 151.566406 314.109375 152.019531 318.519531 151.472656 322.835938 C 150.195312 333.148438 147.15625 342.789062 143.503906 352.371094 C 141.527344 357.570312 140.160156 363.015625 138.183594 368.214844 C 137.210938 370.769531 138.0625 372.714844 139.125 374.84375 C 143.261719 383.148438 147.550781 391.390625 151.472656 399.8125 C 155.550781 408.605469 159.714844 417.394531 161.875 426.914062 C 162.789062 430.988281 163.640625 435.09375 164.550781 439.167969 C 164.734375 439.960938 165.007812 440.75 165.21875 441.542969 C 165.859375 440.902344 166.648438 440.386719 167.074219 439.625 C 172.488281 430.289062 177.355469 420.585938 183.347656 411.644531 C 195.726562 393.277344 208.621094 375.269531 221.484375 357.234375 C 226.289062 350.515625 228.238281 342.636719 231.277344 335.214844 C 233.46875 329.894531 234.472656 324.054688 236.8125 318.792969 C 239.339844 313.105469 236.875 307.996094 236.175781 302.671875 C 235.171875 295.375 231.125 289.351562 226.59375 283.96875 C 223.492188 280.320312 219.050781 277.765625 215.066406 274.875 C 206.371094 268.550781 196.578125 264.75 186.175781 262.285156 C 185.507812 262.132812 184.777344 261.007812 184.59375 260.246094 C 184.105469 258.117188 185.75 258.148438 187.027344 258.390625 C 191.953125 259.363281 196.941406 260.125 201.746094 261.617188 C 210.414062 264.292969 219.539062 266.359375 227.355469 270.710938 C 235.050781 274.96875 243.597656 276.945312 251.015625 281.445312 C 253.054688 282.691406 253.390625 282.933594 254.210938 280.167969 C 257.070312 270.710938 260.566406 261.402344 263.699219 252.035156 C 264.671875 249.085938 265.738281 246.074219 266.039062 243.003906 C 266.742188 235.855469 266.648438 228.617188 267.5625 221.53125 C 268.382812 215.203125 268.808594 208.847656 269.84375 202.523438 C 270.875 196.257812 271.425781 189.871094 272.792969 183.605469 C 274.617188 175.210938 276.808594 166.878906 278.023438 158.390625 C 279.210938 150.242188 281.945312 142.667969 284.503906 134.972656 C 288.546875 122.6875 294.933594 111.523438 301.65625 100.636719 C 308.589844 89.382812 316.164062 78.464844 323.855469 67.730469 C 328.113281 61.769531 332.980469 56.203125 338 50.851562 C 349.832031 38.289062 361.875 25.941406 373.886719 13.5625 C 377.109375 10.21875 380.394531 6.964844 383.773438 3.738281 C 384.257812 3.285156 385.261719 3.34375 386.023438 3.191406 C 386.023438 3.953125 386.203125 4.804688 385.960938 5.472656 C 383.253906 12.589844 381.1875 19.859375 381.15625 27.554688 C 381.09375 38.257812 381.035156 48.933594 381.1875 59.640625 C 381.308594 69.339844 378.722656 78.617188 377.414062 88.105469 C 376.351562 95.679688 375.011719 103.070312 373.1875 110.492188 C 368.292969 130.289062 361.507812 149.207031 350.773438 166.757812 C 344.996094 176.183594 339.003906 185.492188 333.011719 194.796875 C 332.648438 195.34375 332.128906 195.769531 331.644531 196.257812 C 319.660156 208.664062 307.921875 221.316406 295.601562 233.390625 C 290.980469 237.921875 285.109375 241.207031 279.757812 245.007812 C 276.136719 247.566406 272.277344 249.753906 268.871094 252.523438 C 267.136719 253.921875 265.675781 256.082031 264.914062 258.179688 C 262.390625 265.175781 260.230469 272.289062 257.921875 279.347656 C 256.246094 284.394531 256.15625 284.578125 260.445312 286.433594 C 266.863281 289.230469 272.550781 293.0625 277.964844 297.472656 C 278.632812 298.019531 280.546875 298.050781 281.066406 297.535156 C 290.613281 287.742188 300.042969 277.796875 309.5 267.910156 C 310.566406 266.785156 311.691406 265.691406 312.816406 264.597656 C 321.789062 255.625 330.941406 246.804688 339.703125 237.621094 C 348.886719 227.949219 357.738281 217.941406 366.679688 208.027344 C 369.292969 205.136719 372.125 202.339844 374.160156 199.085938 C 376.867188 194.707031 379.789062 190.144531 380.972656 185.246094 C 383.742188 173.933594 387.753906 163.105469 391.710938 152.25 C 392.136719 151.09375 392.316406 149.816406 392.683594 148.628906 C 393.503906 146.042969 393.625 144.339844 390.554688 142.546875 C 386.78125 140.328125 383.710938 136.828125 385.109375 131.535156 C 385.382812 130.503906 385.292969 129.285156 385.140625 128.222656 C 384.136719 121.316406 388.121094 117.335938 393.503906 114.445312 C 400.132812 110.886719 409.746094 114.628906 411.8125 121.316406 C 414.734375 130.746094 409.5625 141.605469 400.164062 144.613281 C 397.519531 145.464844 396.515625 146.042969 395.695312 148.902344 C 392.53125 159.792969 388.730469 170.496094 385.140625 181.292969 C 384.472656 183.332031 383.648438 185.339844 382.921875 187.375 C 386.902344 188.320312 386.449219 184.273438 387.9375 182.632812 C 397.425781 172.167969 406.671875 161.496094 415.917969 150.789062 C 423.097656 142.457031 430.304688 134.09375 437.148438 125.484375 C 441.984375 119.371094 446.300781 112.832031 450.621094 106.324219 C 451.65625 104.773438 452.808594 103.3125 449.648438 101.125 C 445.816406 98.507812 444.445312 93.09375 444.113281 88.289062 C 443.199219 75.394531 447.214844 72.503906 458.316406 67.335938 C 460.292969 66.421875 463.273438 65.507812 464.882812 66.332031 C 469.140625 68.488281 474.980469 69.617188 476.746094 74.269531 C 478.175781 78.039062 477.75 82.996094 476.804688 87.101562 C 474.585938 96.804688 468.65625 102.917969 458.070312 103.40625 C 456.976562 103.464844 455.304688 104.347656 454.9375 105.289062 C 450.226562 116.910156 440.980469 125.363281 433.953125 135.339844 C 430.730469 139.960938 426.410156 143.792969 422.699219 148.113281 C 413 159.425781 402.566406 170.132812 393.808594 182.238281 C 391.011719 186.097656 387.605469 189.503906 384.410156 193.0625 C 380.183594 197.777344 375.894531 202.460938 371.667969 207.175781 C 371.300781 207.570312 371.089844 208.117188 370.816406 208.574219 C 371.421875 208.664062 372.152344 209.03125 372.609375 208.816406 C 374.101562 208.085938 375.46875 207.085938 376.929688 206.292969 C 386.050781 201.273438 395.753906 197.839844 405.914062 195.589844 C 406.519531 195.464844 407.160156 195.34375 407.738281 195.160156 C 413.546875 193.214844 413.546875 193.183594 415.523438 187.375 C 417.46875 181.628906 425.011719 175.789062 431.125 175.605469 C 433.679688 175.546875 436.449219 175.546875 438.789062 176.425781 C 445.085938 178.828125 447.546875 184.914062 444.964844 191.328125 C 440.371094 202.675781 430.882812 205.988281 420.117188 202.25 C 419.355469 201.976562 418.472656 201.519531 418.015625 200.910156 C 414.945312 196.347656 411.628906 198.445312 407.28125 199.238281 C 393.992188 201.699219 382.28125 207.964844 370.269531 213.289062 C 365.28125 215.476562 360.566406 219.402344 356.734375 224.328125 C 351.078125 231.628906 343.746094 237.648438 337.238281 244.308594 C 335.140625 246.4375 333.589844 249.117188 331.492188 251.246094 C 326.078125 256.839844 320.480469 262.316406 314.976562 267.820312 C 309.320312 273.476562 303.691406 279.101562 298.035156 284.761719 C 296.941406 285.855469 295.753906 286.917969 294.75 288.074219 C 292.347656 290.84375 290.039062 293.703125 287.632812 296.46875 C 286.933594 297.261719 286.023438 297.898438 285.140625 298.507812 C 281.550781 300.96875 281.429688 301.0625 284.410156 303.949219 C 293.472656 312.769531 298.25 323.902344 300.804688 335.914062 C 301.988281 341.449219 300.925781 347.472656 301.046875 353.25 C 301.078125 355.074219 301.65625 356.871094 301.988281 358.695312 C 303.632812 357.84375 305.273438 356.960938 306.945312 356.109375 C 307.859375 355.625 308.742188 354.953125 309.714844 354.710938 C 321.425781 351.972656 328.449219 343.367188 335.351562 334.457031 C 341.164062 326.972656 347.457031 319.917969 353.207031 312.40625 C 356.644531 307.933594 359.320312 302.886719 362.605469 298.292969 C 364.003906 296.316406 364.183594 295.132812 362.238281 293.429688 C 357.828125 289.597656 355.972656 284.425781 357.34375 278.859375 C 358.621094 273.628906 361.691406 269.1875 366.617188 266.421875 C 368.414062 265.417969 370.269531 264.019531 372.183594 263.835938 C 380.242188 263.046875 385.324219 267.027344 386.507812 275.667969 C 387.179688 280.503906 387.117188 285.582031 384.835938 290.296875 C 382.707031 294.675781 379.542969 297.746094 374.433594 297.109375 C 368.746094 296.378906 366.070312 298.933594 363.121094 303.648438 C 357.921875 311.917969 351.351562 319.308594 345.390625 327.097656 C 342.410156 330.988281 339.609375 335.035156 336.328125 338.683594 C 334.199219 341.054688 331.398438 342.820312 328.9375 344.917969 C 328.539062 345.253906 328.386719 345.832031 328.113281 346.316406 C 328.722656 346.410156 329.453125 346.742188 329.910156 346.53125 C 336.203125 343.429688 342.5 340.386719 349.34375 338.5625 C 350.347656 338.289062 351.351562 337.011719 351.808594 335.945312 C 354.210938 330.625 359.714844 324.785156 364.976562 323.71875 C 368.929688 322.929688 373.15625 323.71875 377.109375 324.632812 C 378.265625 324.90625 379.664062 326.730469 379.847656 328.039062 C 382.070312 343.183594 372.425781 351.394531 358.132812 349.207031 C 355.914062 348.871094 353.785156 346.53125 352.050781 344.734375 C 349.921875 342.546875 347.945312 342.121094 345.117188 343.367188 C 335.902344 347.441406 326.535156 351.242188 317.289062 355.257812 C 313.121094 357.054688 309.105469 359.210938 304.910156 360.855469 C 302.414062 361.828125 301.472656 363.773438 301.167969 365.902344 C 300.105469 373.082031 299.832031 380.410156 298.277344 387.496094 C 296.726562 394.523438 294.628906 401.578125 291.617188 408.085938 C 284.5625 423.234375 276.410156 437.800781 265.859375 450.9375 C 260.382812 457.753906 257.191406 466.054688 252.964844 473.660156 C 249.738281 479.46875 246.394531 485.183594 243.140625 490.992188 C 242.746094 491.664062 242.652344 492.515625 242.410156 493.273438 C 243.046875 493 243.746094 492.847656 244.296875 492.484375 C 256.523438 484.304688 268.746094 476.152344 280.914062 467.910156 C 288.242188 462.953125 295.449219 457.84375 302.75 452.792969 C 304.117188 451.851562 305.699219 451.089844 306.886719 449.9375 C 322.976562 434.363281 338.820312 418.578125 355.121094 403.21875 C 365.585938 393.367188 377.203125 384.851562 388.484375 375.941406 C 402.171875 365.113281 417.074219 356.019531 430.640625 345.070312 C 434.195312 342.179688 438.242188 339.839844 442.195312 337.496094 C 447.730469 334.210938 453.207031 330.777344 459.042969 328.160156 C 466.921875 324.632812 475.101562 321.742188 483.191406 318.730469 C 495.359375 314.199219 507.523438 309.699219 519.78125 305.378906 C 524.464844 303.738281 529.359375 302.644531 534.136719 301.335938 C 539.152344 299.96875 544.140625 298.597656 549.191406 297.351562 C 550.222656 297.078125 551.5 297.046875 552.476562 297.414062 C 553.023438 297.625 553.660156 299.359375 553.449219 299.542969 C 552.203125 300.636719 550.863281 301.792969 549.3125 302.398438 C 545.265625 304.042969 542.742188 307.023438 539.824219 310.214844 C 532.339844 318.304688 526.351562 327.429688 519.6875 336.066406 C 511.324219 346.925781 503.175781 357.996094 494.050781 368.183594 C 486.417969 376.699219 478.175781 384.910156 469.082031 391.753906 C 452.476562 404.316406 433.710938 413.441406 414.855469 422.078125 C 402.6875 427.644531 390.128906 432.386719 377.476562 436.707031 C 367.441406 440.144531 357.128906 442.789062 346.574219 444.550781 C 339.277344 445.769531 332.21875 448.566406 325.011719 450.511719 C 321.972656 451.335938 318.746094 451.488281 315.796875 452.492188 C 310.929688 454.132812 305.820312 455.5625 301.503906 458.238281 C 289.550781 465.597656 277.902344 473.476562 266.253906 481.292969 C 257.496094 487.160156 248.855469 493.152344 240.25 499.234375 C 234.867188 503.039062 229.667969 507.050781 224.40625 511.066406 C 218.472656 515.597656 212.484375 520.070312 206.703125 524.8125 C 202.324219 528.402344 198.097656 532.203125 194.023438 536.15625 C 187.453125 542.515625 181.097656 549.054688 174.617188 555.5 C 168.992188 561.097656 165.039062 567.910156 160.660156 574.449219 C 153.695312 584.820312 149.558594 596.621094 143.929688 607.660156 C 143.597656 608.296875 143.75 609.148438 143.6875 609.941406 C 144.328125 609.515625 145.054688 609.179688 145.574219 608.632812 C 153.175781 600.359375 162.542969 594.703125 172.457031 589.625 C 178.117188 586.734375 183.285156 583.085938 187.96875 578.492188 C 200.195312 566.511719 212.847656 554.921875 225.5625 543.457031 C 233.40625 536.402344 241.496094 529.527344 249.921875 523.171875 C 257.617188 517.363281 265.675781 511.949219 274.007812 507.113281 C 285.109375 500.695312 296.394531 494.550781 308.011719 489.167969 C 318.871094 484.121094 329.96875 479.46875 342.074219 477.765625 C 351.199219 476.457031 360.171875 473.476562 369.292969 472.777344 C 376.5625 472.230469 384.015625 471.679688 391.496094 473.660156 C 399.859375 475.878906 408.648438 476.394531 417.195312 477.917969 C 424.585938 479.222656 431.917969 480.714844 439.488281 480.621094 C 440.402344 480.621094 441.40625 481.351562 442.257812 481.929688 C 442.988281 482.417969 443.503906 483.148438 444.140625 483.785156 C 443.382812 484.058594 442.652344 484.425781 441.859375 484.578125 C 433.621094 486.097656 425.253906 486.339844 417.289062 489.808594 C 406.765625 494.371094 396.421875 499.175781 387.300781 506.140625 C 374.039062 516.265625 361.328125 527.1875 347.945312 537.160156 C 339.0625 543.792969 329.878906 550.332031 320.023438 555.226562 C 309.5625 560.398438 298.644531 565.050781 287.058594 567.574219 C 280.367188 569.035156 273.765625 571.011719 267.136719 572.714844 C 266.527344 572.867188 265.828125 572.835938 265.1875 572.867188 C 256.917969 573.324219 248.554688 573.230469 240.371094 574.386719 C 234.957031 575.148438 229.394531 574.84375 224.007812 576.730469 C 220.449219 577.976562 216.40625 577.976562 212.574219 578.1875 C 205.335938 578.585938 198.644531 581.078125 192.136719 583.722656 C 185.476562 586.460938 179.269531 590.261719 172.792969 593.519531 C 161.023438 599.417969 150.316406 606.746094 141.710938 616.753906 C 139.460938 619.367188 137.878906 622.714844 136.722656 626 C 132.070312 639.230469 127.445312 652.488281 123.28125 665.871094 C 119.8125 676.941406 116.984375 688.226562 113.941406 699.449219 C 111.664062 707.871094 109.625 716.359375 107.222656 724.75 C 102.871094 739.867188 98.371094 754.953125 93.871094 770.039062 C 90.34375 781.929688 86.8125 793.851562 83.164062 805.710938 C 79.699219 816.964844 76.839844 828.492188 72.308594 839.320312 C 66.132812 853.980469 59.351562 868.457031 50.410156 881.714844 C 45.574219 888.863281 42.957031 896.890625 40.402344 904.980469 C 40.097656 905.957031 39.125 906.867188 39.1875 907.78125 C 39.339844 910.546875 37.421875 909.664062 36.054688 909.816406 C 36.054688 908.8125 35.8125 907.71875 36.144531 906.808594 C 37.941406 901.757812 40.371094 896.890625 41.648438 891.722656 C 43.503906 884.300781 47.519531 878.003906 51.351562 871.679688 C 56.523438 863.132812 60.355469 854.007812 64.765625 845.160156 C 70.726562 833.144531 73.160156 820.097656 77.75 807.75 C 82.160156 795.949219 85.8125 783.875 89.460938 771.832031 C 92.957031 760.335938 95.847656 748.65625 99.3125 737.128906 C 101.503906 729.921875 102.386719 723.046875 100.894531 715.324219 C 98.980469 705.4375 96.820312 695.707031 94.417969 685.914062 C 91.863281 675.605469 88.820312 665.476562 85.839844 655.316406 C 83.4375 647.199219 80.367188 639.289062 77.933594 631.199219 C 74.648438 620.28125 71.851562 609.242188 68.445312 598.351562 C 66.679688 592.667969 64.035156 587.253906 61.9375 581.6875 C 59.167969 574.355469 56.554688 566.996094 53.816406 559.636719 C 50.714844 551.335938 47.367188 543.152344 43.71875 535.0625 C 40.039062 526.882812 34.746094 519.675781 31.066406 511.554688 C 30.125 509.484375 29.515625 507.8125 26.445312 509.820312 C 21.820312 512.859375 16.011719 512.132812 11.175781 511.035156 C 8.105469 510.335938 5.367188 506.171875 3.421875 502.976562 C -0.5625 496.40625 1.382812 486.582031 7.101562 481.230469 C 12.027344 476.640625 17.714844 477.09375 23.371094 479.042969 C 29.667969 481.199219 34.167969 485.003906 33.773438 492.515625 C 33.53125 496.773438 34.625 501.183594 31.582031 505.015625 C 31.21875 505.5 31.644531 506.898438 32.070312 507.691406 C 37.027344 516.570312 42.410156 525.210938 47.003906 534.273438 C 52.691406 545.496094 57.191406 557.265625 60.507812 569.460938 C 60.71875 570.25 61.539062 570.890625 62.089844 571.589844 C 62.269531 570.769531 62.667969 569.917969 62.605469 569.097656 C 62.484375 567.636719 61.875 566.207031 61.84375 564.777344 C 61.722656 561.429688 61.8125 558.085938 61.8125 554.742188 C 61.8125 551.394531 62.210938 547.988281 61.691406 544.734375 C 61.238281 541.691406 61.8125 538.589844 62.117188 535.824219 C 62.96875 527.945312 64.15625 520.101562 64.429688 512.160156 C 64.460938 511.25 63 510.003906 63.273438 509.425781 C 65.890625 504.132812 63.640625 498.535156 64.519531 493.214844 C 65.496094 487.558594 65.980469 481.871094 65.769531 476.152344 C 65.675781 473.871094 65.496094 471.316406 64.398438 469.402344 C 56.554688 455.472656 48.523438 441.632812 40.34375 427.886719 C 39.066406 425.726562 37.089844 423.871094 33.773438 424.417969 C 28.296875 425.332031 24.164062 421.832031 19.90625 419.277344 C 14.066406 415.75 12.332031 401.792969 19.175781 394.371094 C 22.1875 391.117188 24.921875 387.527344 30.152344 386.949219 C 38.367188 386.066406 42.777344 390.78125 47.1875 396.53125 C 52.265625 403.160156 48.21875 413.226562 44.234375 418.578125 C 41.101562 422.808594 41.101562 422.5625 43.902344 427.367188 C 47.855469 434.179688 51.199219 441.328125 55.398438 447.988281 C 58.832031 453.464844 62.636719 458.695312 65.25 464.65625 C 65.464844 465.140625 66.164062 465.417969 66.648438 465.78125 C 66.832031 465.171875 67.136719 464.59375 67.136719 463.988281 C 67.199219 462.191406 67.074219 460.429688 67.167969 458.632812 C 67.410156 455.046875 67.320312 452.125 63.121094 450.238281 C 60.261719 448.960938 59.109375 445.554688 59.078125 442.027344 C 59.015625 435.761719 60.292969 430.136719 65.160156 425.816406 C 68.71875 422.683594 73.25 422.199219 77.539062 424.480469 C 83.957031 427.917969 86.539062 433.148438 85.992188 440.507812 C 85.507812 446.742188 81.855469 450.027344 76.992188 452.734375 C 76.261719 453.128906 75.5625 453.675781 74.769531 453.828125 C 69.84375 454.773438 69.964844 454.742188 69.8125 459.332031 C 69.449219 470.828125 68.808594 482.296875 68.628906 493.761719 C 68.597656 496.164062 65.617188 497.929688 67.835938 501.03125 C 68.871094 502.492188 67.378906 505.714844 67.226562 508.148438 C 67.167969 509.152344 67.5625 510.214844 67.746094 511.25 C 68.230469 510.398438 68.71875 509.546875 69.144531 508.695312 C 72.0625 503.007812 74.558594 497.046875 77.933594 491.632812 C 83.195312 483.269531 88.972656 475.210938 94.722656 467.148438 C 95.90625 465.476562 96.667969 464.839844 95.421875 462.34375 C 92.105469 455.683594 95.238281 449.328125 98.402344 443.488281 C 100.773438 439.140625 111.785156 436.035156 116.011719 437.863281 C 123.402344 441.054688 128.175781 454.011719 124.617188 461.25 C 124.160156 462.160156 123.675781 463.074219 123.1875 464.015625 C 118.414062 473.203125 110.71875 475.085938 102.292969 470.648438 C 98.738281 468.761719 97.035156 469.308594 95.207031 472.015625 C 86.8125 483.753906 77.417969 494.976562 71.304688 508.816406 M 226.714844 401.515625 C 216.984375 411.25 207.070312 420.832031 197.550781 430.773438 C 189.886719 438.804688 182.496094 447.136719 175.347656 455.652344 C 168.171875 464.199219 162.453125 473.808594 156.371094 483.148438 C 153.390625 487.710938 151.351562 492.757812 147.609375 497.015625 C 144.328125 500.757812 142.289062 505.867188 140.554688 510.703125 C 133.53125 530.226562 129.546875 550.421875 128.421875 571.164062 C 128.175781 575.664062 127.964844 580.257812 127.019531 584.636719 C 125.257812 592.667969 125.257812 600.847656 124.496094 608.9375 C 124.101562 613.132812 124.40625 617.390625 124.4375 621.621094 C 124.4375 624.722656 123.765625 628.066406 124.738281 630.867188 C 126.015625 634.574219 126.414062 637.800781 124.679688 641.328125 C 124.4375 641.84375 125.011719 642.757812 125.195312 643.488281 C 125.835938 643.089844 126.808594 642.847656 127.019531 642.300781 C 128.480469 638.683594 129.820312 635 131.066406 631.292969 C 137.511719 612.3125 145.605469 594.066406 155.183594 576.457031 C 160.808594 566.117188 167.925781 556.808594 176.109375 548.382812 C 186.722656 537.433594 198.371094 527.582031 210.355469 518.121094 C 218.230469 511.917969 226.230469 505.867188 234.078125 499.660156 C 235.597656 498.445312 237.058594 496.953125 238 495.28125 C 241.710938 488.589844 245.238281 481.808594 248.734375 475.027344 C 252.113281 468.425781 254.726562 461.308594 258.894531 455.257812 C 261.449219 451.546875 260.992188 448.597656 258.984375 446.074219 C 254.363281 440.265625 250.863281 433.90625 247.09375 427.613281 C 242.136719 419.339844 239.703125 410.792969 239.367188 401.367188 C 239.277344 398.324219 239.003906 395.28125 238.789062 392.242188 C 236.296875 394.21875 233.773438 396.164062 231.339844 398.234375 C 230.214844 399.207031 229.179688 400.390625 226.714844 401.515625 M 378.480469 13.105469 C 369.964844 21.621094 361.449219 30.136719 352.960938 38.625 C 351.867188 39.71875 350.652344 40.753906 349.679688 41.9375 C 343.808594 49.085938 337.90625 56.171875 332.191406 63.441406 C 326.535156 70.648438 320.9375 77.886719 315.675781 85.339844 C 310.230469 93.035156 304.757812 100.789062 300.164062 109 C 295.847656 116.695312 292.410156 124.9375 288.972656 133.089844 C 285.078125 142.273438 282.191406 151.792969 280.578125 161.707031 C 279.269531 169.765625 277.140625 177.675781 275.589844 185.671875 C 274.28125 192.363281 273.339844 199.117188 272.640625 205.929688 C 271.757812 214.476562 270.664062 222.992188 270.148438 231.566406 C 270.054688 233.179688 269.050781 234.761719 268.929688 236.371094 C 268.808594 238.289062 269.203125 240.234375 269.355469 242.179688 C 270.085938 240.601562 270.96875 239.046875 271.515625 237.40625 C 272.945312 232.875 274.28125 228.28125 275.53125 223.691406 C 276.960938 218.457031 278.359375 213.257812 279.542969 207.964844 C 281.429688 199.601562 283.042969 191.148438 284.957031 182.785156 C 286.570312 175.667969 288.394531 168.609375 290.1875 161.554688 C 292.074219 154.132812 295.359375 147.199219 297.914062 140.023438 C 302.171875 128.101562 308.375 117.484375 315.25 107.085938 C 320.816406 98.660156 326.351562 90.234375 332.3125 82.085938 C 338.332031 73.8125 344.84375 65.875 351.167969 57.785156 C 354.605469 53.40625 358.042969 49.027344 361.601562 44.738281 C 363.152344 42.851562 364.976562 41.179688 366.832031 39.566406 C 367.257812 39.203125 368.292969 39.597656 369.050781 39.628906 C 368.992188 40.234375 369.144531 41.027344 368.808594 41.421875 C 363.484375 47.71875 358.011719 53.859375 352.808594 60.21875 C 347 67.335938 341.191406 74.480469 335.839844 81.933594 C 329.726562 90.449219 324.128906 99.359375 318.292969 108.058594 C 309.320312 121.347656 302.386719 135.613281 296.910156 150.667969 C 293.414062 160.308594 291.164062 170.164062 288.636719 180.046875 C 285.777344 191.179688 283.710938 202.460938 281.15625 213.625 C 278.480469 225.273438 276.503906 236.949219 269.171875 246.804688 C 268.898438 247.199219 269.171875 247.992188 269.171875 248.597656 C 269.660156 248.386719 270.175781 248.292969 270.574219 247.992188 C 273.644531 245.679688 276.5625 243.15625 279.726562 241.027344 C 287.9375 235.492188 296.121094 229.925781 302.8125 222.503906 C 311.601562 212.742188 320.632812 203.222656 329.179688 193.277344 C 334.015625 187.648438 338.546875 181.6875 342.316406 175.332031 C 348.855469 164.324219 355.457031 153.375 360.171875 141.300781 C 363.578125 132.632812 366.617188 123.871094 369.113281 114.929688 C 371.121094 107.84375 372.125 100.484375 373.582031 93.308594 C 376.105469 80.929688 377.839844 68.519531 378.386719 55.988281 C 378.722656 47.960938 376.808594 39.808594 377.476562 31.839844 C 377.960938 26.15625 377.140625 19.859375 380.882812 14.597656 C 381.886719 13.167969 380.972656 12.253906 378.480469 13.105469 M 445.996094 372.078125 C 433.375 379.648438 420.996094 387.648438 409.441406 396.710938 C 393.382812 409.273438 375.804688 419.21875 357.675781 428.28125 C 346.789062 433.726562 335.808594 438.925781 324.859375 444.277344 C 323.371094 445.007812 321.972656 445.890625 320.542969 446.742188 C 320.207031 446.957031 319.996094 447.351562 319.71875 447.683594 C 320.296875 447.898438 321.027344 448.414062 321.453125 448.234375 C 331.15625 444.402344 341.222656 442.089844 351.382812 439.71875 C 362.847656 437.070312 374.128906 433.605469 385.292969 429.742188 C 398.003906 425.363281 410.292969 419.976562 422.273438 414.140625 C 439.277344 405.867188 456.277344 397.289062 471.179688 385.398438 C 475.40625 382.023438 479.695312 378.554688 483.375 374.601562 C 488.699219 368.945312 493.625 362.863281 498.550781 356.839844 C 502.75 351.730469 506.792969 346.46875 510.808594 341.207031 C 517.011719 333.085938 523.066406 324.875 529.332031 316.816406 C 532.128906 313.226562 535.292969 309.941406 538.242188 306.445312 C 538.605469 306.019531 538.667969 305.289062 538.878906 304.710938 C 538.453125 304.621094 537.96875 304.347656 537.632812 304.46875 C 531.367188 306.65625 524.707031 307.144531 518.503906 309.941406 C 510.839844 313.441406 502.628906 315.660156 494.6875 318.550781 C 483.863281 322.503906 472.914062 326.214844 462.300781 330.683594 C 455.457031 333.574219 449.128906 337.648438 442.621094 341.269531 C 439.703125 342.878906 436.691406 344.429688 434.105469 346.5 C 420.753906 357.355469 405.941406 366.207031 392.4375 376.882812 C 379.9375 386.765625 367.074219 396.132812 355.730469 407.417969 C 347.367188 415.75 339.0625 424.144531 330.640625 432.417969 C 329.148438 433.878906 327.203125 434.882812 325.558594 436.25 C 322.398438 438.863281 319.265625 441.542969 316.222656 444.308594 C 315.796875 444.703125 316.039062 445.769531 315.949219 446.53125 C 316.4375 446.253906 316.921875 446.011719 317.378906 445.707031 C 319.996094 443.972656 322.488281 441.96875 325.285156 440.566406 C 337.269531 434.546875 349.28125 428.585938 361.355469 422.777344 C 379.511719 414.015625 396.394531 403.160156 412.238281 390.8125 C 422.214844 383.027344 432.769531 376.214844 443.777344 370.070312 C 449.402344 366.9375 454.816406 363.410156 460.414062 360.214844 C 463.273438 358.605469 466.285156 357.175781 469.355469 355.988281 C 470.417969 355.59375 471.878906 356.203125 473.15625 356.351562 C 472.273438 357.082031 471.484375 357.996094 470.480469 358.542969 C 462.816406 363.195312 455.089844 367.636719 445.996094 372.078125 M 122.429688 254.4375 C 122.214844 247.625 120.726562 240.539062 122.0625 234.0625 C 123.917969 224.996094 125.347656 215.660156 129.726562 207.207031 C 130.578125 205.59375 130.761719 203.617188 131.097656 201.761719 C 132.496094 194.554688 132.585938 186.707031 135.566406 180.230469 C 139.640625 171.441406 139.976562 161.007812 147.03125 153.527344 C 147.277344 153.253906 147.0625 152.15625 146.730469 151.824219 C 146.394531 151.519531 145.390625 151.425781 144.996094 151.703125 C 136.417969 157.964844 127.597656 163.898438 119.449219 170.679688 C 110.871094 177.828125 103.542969 186.3125 97.246094 195.527344 C 93.019531 201.671875 89.09375 208.148438 85.960938 214.902344 C 83.042969 221.226562 80.851562 228.039062 79.332031 234.851562 C 77.144531 244.585938 74.40625 254.285156 74.890625 264.472656 C 75.226562 271.378906 74.800781 278.28125 75.015625 285.1875 C 75.164062 289.445312 75.289062 293.882812 76.503906 297.929688 C 79.453125 307.8125 83.164062 317.425781 88.273438 326.488281 C 94.296875 337.164062 103.238281 345.160156 111.964844 353.28125 C 117.410156 358.359375 123.644531 362.589844 129.574219 367.148438 C 130.699219 368 132.769531 369.460938 133.132812 369.15625 C 135.140625 367.484375 132.707031 366.722656 131.976562 365.597656 C 131.734375 365.234375 131.308594 364.992188 131.15625 364.59375 C 127.113281 354.679688 122.550781 344.949219 119.265625 334.789062 C 115.523438 323.203125 109.898438 312.222656 107.828125 300.058594 C 106.582031 292.636719 104.273438 285.398438 103.207031 277.976562 C 102.628906 273.78125 102.355469 269.433594 102.933594 265.050781 C 103.511719 260.792969 101.960938 256.597656 102.871094 252.097656 C 104.363281 244.796875 104.453125 237.195312 105.792969 229.863281 C 107.128906 222.503906 108.925781 215.175781 111.144531 208.027344 C 113.394531 200.757812 116.375 193.703125 119.113281 186.617188 C 119.386719 185.917969 120.421875 185.492188 121.089844 184.941406 C 121.304688 185.734375 121.667969 186.554688 121.667969 187.347656 C 121.667969 187.894531 121.179688 188.472656 120.9375 189.019531 C 114.613281 204.558594 110.414062 220.617188 108.347656 237.285156 C 107.859375 241.085938 107.648438 244.949219 106.703125 248.660156 C 104.515625 257.386719 105.640625 266.238281 105.914062 274.96875 C 106.097656 281.140625 108.226562 287.285156 109.746094 293.367188 C 111.511719 300.421875 113.273438 307.480469 115.554688 314.351562 C 117.746094 320.984375 120.542969 327.429688 123.097656 333.9375 C 126.65625 342.941406 130.214844 351.945312 133.773438 360.914062 C 133.984375 361.492188 134.167969 362.101562 134.382812 362.679688 C 134.625 362.164062 134.988281 361.675781 135.109375 361.128906 C 136.480469 353.890625 137.511719 346.558594 139.214844 339.414062 C 141.347656 330.472656 143.261719 321.558594 143.171875 312.316406 C 143.109375 307.417969 143.199219 302.523438 143.140625 297.625 C 143.109375 296.164062 142.714844 294.707031 142.5 293.214844 C 141.132812 284.363281 136.023438 277.550781 130.824219 270.585938 C 127.386719 266.027344 123.765625 261.21875 122.429688 254.4375 M 296.910156 498.445312 C 284.167969 504.710938 272.09375 511.980469 260.355469 520.007812 C 245.96875 529.832031 233.011719 541.085938 220.664062 553.191406 C 214.792969 558.9375 208.195312 563.894531 202.019531 569.339844 C 199.34375 571.679688 196.910156 574.328125 194.476562 576.910156 C 194.113281 577.308594 194.175781 578.097656 194.023438 578.675781 C 194.660156 578.464844 195.328125 578.371094 195.90625 578.039062 C 204.574219 573.140625 213.152344 568.0625 221.878906 563.285156 C 228.753906 559.515625 236.234375 556.71875 242.714844 552.398438 C 255.03125 544.1875 268.65625 538.5 281.398438 531.171875 C 291.132812 525.574219 301.109375 520.375 310.414062 514.167969 C 326.351562 503.585938 343.839844 496.984375 362.238281 492.394531 C 370.9375 490.234375 379.605469 488.042969 388.304688 485.976562 C 389.398438 485.730469 390.675781 486.28125 391.863281 486.460938 C 391.070312 487.222656 390.339844 488.011719 389.519531 488.714844 C 389.0625 489.109375 388.515625 489.566406 387.9375 489.6875 C 376.351562 492.394531 364.671875 494.703125 353.207031 497.867188 C 346.089844 499.8125 339.308594 503.007812 332.433594 505.714844 C 317.46875 511.613281 304.542969 521.226562 290.738281 529.132812 C 279.027344 535.855469 266.890625 541.691406 255.246094 548.445312 C 247.730469 552.792969 240.25 557.113281 232.3125 560.792969 C 224.464844 564.414062 217.714844 570.3125 209.230469 572.867188 C 208.527344 573.078125 208.074219 574.082031 207.496094 574.691406 C 208.316406 574.875 209.230469 575.453125 209.898438 575.238281 C 220.480469 571.742188 231.644531 572.046875 242.46875 570.128906 C 249.039062 568.945312 255.882812 570.34375 262.632812 568.730469 C 268.808594 567.269531 275.5 567.667969 281.492188 565.75 C 292.652344 562.160156 303.601562 557.8125 314.335938 553.128906 C 332.675781 545.128906 348.035156 532.449219 363.394531 520.039062 C 375.957031 509.910156 388.242188 499.359375 402.628906 491.96875 C 408.953125 488.714844 415.371094 484.882812 422.851562 484.332031 C 423.675781 484.273438 424.464844 483.9375 425.285156 483.753906 C 424.496094 483.054688 423.765625 481.902344 422.914062 481.777344 C 418.230469 481.171875 413.484375 480.898438 408.769531 480.347656 C 402.871094 479.648438 397.0625 478.28125 391.253906 477.277344 C 382.859375 475.847656 374.585938 476.363281 366.34375 476.578125 C 359.746094 476.761719 353.238281 479.316406 346.605469 480.289062 C 336.84375 481.6875 327.597656 484.699219 318.535156 488.4375 C 311.417969 491.359375 304.542969 494.644531 296.910156 498.445312 M 244.78125 368.761719 C 244.324219 373.019531 243.808594 377.308594 243.472656 381.566406 C 243.292969 384 244.050781 386.675781 243.261719 388.835938 C 240.128906 397.289062 242.53125 405.59375 244.386719 413.5 C 246.941406 424.539062 253.539062 433.878906 260.203125 442.972656 C 260.871094 443.882812 261.601562 444.734375 262.332031 445.617188 C 263.183594 444.734375 264.429688 443.976562 264.792969 442.941406 C 269.75 428.523438 274.679688 414.078125 279.390625 399.570312 C 280.367188 396.589844 280.792969 393.304688 280.820312 390.171875 C 280.972656 373.6875 280.914062 357.207031 280.851562 340.75 C 280.851562 339.078125 280.457031 337.375 279.96875 335.792969 C 277.660156 328.222656 274.800781 320.890625 269.660156 314.6875 C 269.203125 314.140625 269.265625 313.195312 269.082031 312.4375 C 269.996094 312.589844 271 312.558594 271.820312 312.953125 C 272.578125 313.320312 273.25 314.078125 273.707031 314.808594 C 280.214844 324.785156 284.410156 335.640625 284.835938 347.5625 C 285.230469 359.121094 285.203125 370.738281 284.804688 382.296875 C 284.59375 388.195312 283.773438 394.21875 282.128906 399.84375 C 278.144531 413.5 274.890625 427.429688 268.351562 440.203125 C 268.140625 440.597656 268.230469 441.144531 268.199219 441.601562 C 268.871094 441.269531 269.871094 441.117188 270.175781 440.570312 C 274.890625 432.507812 279.542969 424.417969 284.167969 416.296875 C 292.988281 400.726562 296.394531 383.453125 298.035156 366.023438 C 298.980469 356.109375 299.375 345.890625 297.0625 335.855469 C 295.574219 329.347656 294.628906 322.714844 290.28125 317.273438 C 286.023438 311.917969 282.496094 305.714844 277.355469 301.425781 C 268.414062 293.976562 258.011719 288.53125 247.304688 283.847656 C 241.285156 281.203125 235.261719 278.554688 229.269531 275.820312 C 225.136719 273.933594 221.121094 271.863281 216.953125 270.101562 C 215.765625 269.582031 214.246094 269.796875 212.878906 269.675781 C 213.820312 270.40625 214.734375 271.164062 215.738281 271.804688 C 220.511719 274.96875 225.410156 277.765625 229.421875 282.234375 C 237.058594 290.722656 240.25 300.574219 240.859375 311.644531 C 241.164062 317.027344 241.222656 322.503906 242.289062 327.765625 C 243.929688 335.824219 244.933594 343.855469 244.84375 352.066406 C 244.75 357.175781 244.78125 362.285156 244.78125 368.761719 M 155.214844 470.375 C 153.023438 475.695312 150.714844 480.988281 148.675781 486.371094 C 147.976562 488.195312 147.976562 490.292969 147.671875 492.242188 C 148.859375 490.628906 150.378906 489.167969 151.140625 487.40625 C 155.851562 476.335938 163.121094 466.816406 169.996094 457.175781 C 176.382812 448.261719 183.558594 439.777344 191.191406 431.902344 C 202.414062 420.3125 214.277344 409.363281 226.015625 398.292969 C 228.9375 395.527344 232.160156 392.910156 235.65625 390.902344 C 239.0625 388.957031 240.617188 386.3125 240.738281 382.660156 C 240.890625 378.890625 241.253906 374.996094 240.644531 371.316406 C 240.039062 367.574219 242.894531 364.019531 240.765625 360.367188 C 243.140625 354.953125 242.289062 349.539062 240.828125 344.097656 C 240.371094 342.453125 240.523438 340.660156 240.402344 338.925781 C 239.15625 340.449219 237.910156 341.96875 236.632812 343.457031 C 236.207031 343.976562 235.628906 344.371094 235.230469 344.886719 C 227.71875 354.679688 219.964844 364.320312 212.785156 374.359375 C 205.335938 384.757812 198.582031 395.648438 191.285156 406.171875 C 182.101562 419.371094 174.039062 433.238281 166.375 447.320312 C 162.421875 454.527344 159.320312 462.222656 155.214844 470.375 M 144.507812 331.324219 C 144.050781 332.265625 143.445312 333.148438 143.199219 334.121094 C 142.441406 337.40625 141.863281 340.691406 141.195312 343.976562 C 140.492188 347.472656 139.792969 350.96875 139.1875 354.5 C 139.125 354.925781 139.671875 355.441406 139.917969 355.925781 C 140.097656 355.5625 140.371094 355.199219 140.464844 354.800781 C 142.378906 346.074219 146.941406 338.042969 147.214844 328.859375 C 147.335938 324.816406 147.214844 320.40625 148.734375 316.816406 C 150.164062 313.46875 149.3125 310.398438 149.832031 307.234375 C 150.316406 304.226562 151.808594 300.847656 150.957031 298.265625 C 148.644531 291.269531 150.5625 284.304688 149.832031 277.371094 C 149.617188 275.453125 149.34375 273.566406 149.070312 271.683594 C 147.457031 261.28125 141.800781 252.429688 137.816406 242.941406 C 133.984375 233.789062 130.304688 224.570312 131.066406 214.292969 C 131.125 213.53125 130.488281 212.679688 130.183594 211.890625 C 129.605469 212.773438 128.695312 213.5625 128.511719 214.535156 C 127.082031 221.742188 125.410156 228.953125 124.527344 236.25 C 122.976562 249.117188 126.046875 260.703125 134.683594 270.800781 C 138.730469 275.542969 142.5 280.714844 144.113281 286.890625 C 145.179688 290.964844 145.542969 295.253906 146.058594 299.449219 C 146.546875 303.28125 147.855469 307.417969 146.941406 310.976562 C 145.359375 317.273438 146.03125 323.75 144.507812 331.324219 M 232.738281 343.335938 C 233.679688 341.96875 234.320312 340.171875 235.597656 339.261719 C 239.308594 336.585938 239.945312 332.996094 239.460938 328.859375 C 239.335938 327.765625 239.519531 326.640625 239.398438 325.542969 C 239.277344 324.570312 238.941406 323.628906 238.699219 322.65625 C 238.058594 323.71875 236.84375 324.785156 236.875 325.820312 C 236.964844 328.707031 235.992188 331.078125 234.59375 333.542969 C 232.890625 336.554688 231.734375 339.871094 230.394531 343.0625 C 230.394531 343.183594 231.492188 343.703125 232.738281 343.335938 Z M 232.738281 343.335938 " fill-opacity="1" fill-rule="nonzero"/></g></g></g></g></g><g clip-path="url(#bf66e23c20)"><g transform="matrix(1, 0, 0, 1, 0, 171)"><g clip-path="url(#99a71fc851)"><g fill="#f1f1f1" fill-opacity="1"><g transform="translate(1.812727, 442.880549)"><g><path d="M 13.25 -436.234375 L 13.25 -441.53125 L 148.796875 -441.53125 L 148.796875 -436.234375 L 125.84375 -436.234375 C 122.007812 -436.234375 118.253906 -435.789062 114.578125 -434.90625 C 110.898438 -434.019531 109.0625 -430.632812 109.0625 -424.75 C 109.0625 -422.101562 110.898438 -414.671875 114.578125 -402.453125 C 118.253906 -390.234375 123.179688 -374.78125 129.359375 -356.09375 C 135.546875 -337.40625 142.539062 -316.800781 150.34375 -294.28125 C 158.144531 -271.757812 166.164062 -248.722656 174.40625 -225.171875 C 182.644531 -201.628906 190.664062 -178.890625 198.46875 -156.953125 C 206.269531 -135.023438 213.257812 -115.378906 219.4375 -98.015625 C 225.625 -80.648438 230.554688 -66.890625 234.234375 -56.734375 C 237.910156 -46.578125 239.75 -41.5 239.75 -41.5 L 237.984375 -46.796875 C 242.984375 -61.222656 249.75 -80.359375 258.28125 -104.203125 C 266.820312 -128.046875 275.804688 -153.65625 285.234375 -181.03125 C 292.878906 -202.8125 300.378906 -224.738281 307.734375 -246.8125 C 315.097656 -268.894531 321.796875 -290.015625 327.828125 -310.171875 C 333.867188 -330.335938 338.726562 -348.441406 342.40625 -364.484375 C 346.082031 -380.523438 347.921875 -393.253906 347.921875 -402.671875 C 347.921875 -415.035156 344.238281 -423.71875 336.875 -428.71875 C 329.519531 -433.726562 321.578125 -436.234375 313.046875 -436.234375 L 290.09375 -436.234375 L 290.09375 -441.53125 L 435.34375 -441.53125 L 435.34375 -436.234375 L 417.25 -436.234375 C 408.414062 -436.234375 400.90625 -433.878906 394.71875 -429.171875 C 388.539062 -424.460938 383.316406 -418.867188 379.046875 -412.390625 C 374.785156 -405.910156 371.179688 -399.726562 368.234375 -393.84375 C 367.347656 -391.78125 364.914062 -385.375 360.9375 -374.625 C 356.96875 -363.882812 351.894531 -349.90625 345.71875 -332.6875 C 339.539062 -315.46875 332.769531 -296.1875 325.40625 -274.84375 C 318.050781 -253.507812 310.328125 -231.363281 302.234375 -208.40625 C 294.140625 -185.445312 286.191406 -162.632812 278.390625 -139.96875 C 270.585938 -117.300781 263.226562 -96.03125 256.3125 -76.15625 C 249.394531 -56.289062 243.429688 -39 238.421875 -24.28125 C 233.421875 -9.5625 229.597656 1.472656 226.953125 8.828125 L 221.65625 8.828125 C 219 1.472656 215.164062 -9.5625 210.15625 -24.28125 C 205.15625 -39 199.195312 -56.289062 192.28125 -76.15625 C 185.363281 -96.03125 178.003906 -117.300781 170.203125 -139.96875 C 162.410156 -162.632812 154.460938 -185.445312 146.359375 -208.40625 C 138.265625 -231.363281 130.539062 -253.507812 123.1875 -274.84375 C 115.832031 -296.1875 109.0625 -315.46875 102.875 -332.6875 C 96.695312 -349.90625 91.617188 -363.882812 87.640625 -374.625 C 83.671875 -385.375 81.242188 -391.78125 80.359375 -393.84375 C 77.410156 -399.726562 73.800781 -405.910156 69.53125 -412.390625 C 65.269531 -418.867188 60.046875 -424.460938 53.859375 -429.171875 C 47.679688 -433.878906 40.175781 -436.234375 31.34375 -436.234375 Z M 13.25 -436.234375 "/></g></g></g></g></g></g><g clip-path="url(#97628a5400)"><g transform="matrix(1, 0, 0, 1, 240, 394)"><g clip-path="url(#bc458d95e0)"><g fill="#f1f1f1" fill-opacity="1"><g transform="translate(1.412567, 452.040583)"><g><path d="M 13.25 -441.5625 L 268.03125 -441.5625 C 276.863281 -441.5625 284.367188 -441.925781 290.546875 -442.65625 C 296.734375 -443.394531 301.441406 -445.972656 304.671875 -450.390625 L 309.09375 -450.390625 L 226.515625 -221.21875 L 220.34375 -221.21875 L 260.078125 -331.609375 C 266.847656 -352.515625 269.347656 -369.738281 267.578125 -383.28125 C 265.816406 -396.820312 261.253906 -407.414062 253.890625 -415.0625 C 246.535156 -422.71875 237.410156 -428.164062 226.515625 -431.40625 C 215.628906 -434.644531 204.296875 -436.265625 192.515625 -436.265625 L 88.3125 -436.265625 L 88.3125 -284.359375 L 123.203125 -284.359375 C 136.148438 -284.359375 145.492188 -286.492188 151.234375 -290.765625 C 156.972656 -295.035156 160.578125 -300.773438 162.046875 -307.984375 C 163.523438 -315.203125 164.265625 -323.078125 164.265625 -331.609375 L 169.5625 -331.609375 L 169.5625 -144.828125 L 165.140625 -144.828125 L 165.140625 -210.625 C 165.140625 -230.9375 160.28125 -247.492188 150.5625 -260.296875 C 140.851562 -273.109375 125.253906 -279.515625 103.765625 -279.515625 L 88.3125 -279.515625 L 88.3125 -5.734375 L 201.359375 -5.734375 C 214.597656 -5.734375 226.8125 -6.910156 238 -9.265625 C 249.1875 -11.628906 258.753906 -16.414062 266.703125 -23.625 C 274.648438 -30.832031 280.832031 -41.5 285.25 -55.625 C 289.664062 -69.757812 291.875 -88.457031 291.875 -111.71875 L 291.875 -221.21875 L 297.171875 -221.21875 L 297.171875 8.390625 L 291.875 8.390625 C 288.34375 3.972656 283.039062 1.394531 275.96875 0.65625 C 268.90625 -0.0703125 259.632812 -0.4375 248.15625 -0.4375 L 13.25 -0.4375 L 13.25 -5.734375 L 33.5625 -5.734375 C 36.5 -5.734375 39.660156 -6.394531 43.046875 -7.71875 C 46.429688 -9.050781 49.445312 -11.773438 52.09375 -15.890625 C 54.75 -20.015625 56.078125 -26.050781 56.078125 -34 L 56.078125 -408.4375 C 56.078125 -416.6875 54.75 -422.796875 52.09375 -426.765625 C 49.445312 -430.742188 46.429688 -433.394531 43.046875 -434.71875 C 39.660156 -436.039062 36.5 -436.703125 33.5625 -436.703125 L 13.25 -436.703125 Z M 13.25 -441.5625 "/></g></g></g></g></g></g></g></g></svg>